<svg width="0" height="0" class="hidden">
  <symbol fill="none" xmlns="http://www.w3.org/2000/svg" viewBox="0 0 14 6" id="icon-arrow-right">
    <path d="M0 4V2L11 2V0L14 3L11 6V4L0 4Z" fill="#292929"></path>
  </symbol>
  <symbol fill="none" xmlns="http://www.w3.org/2000/svg" viewBox="0 0 25 11" id="arrow-right-end">
    <path d="M10.0055 6.08789L0.972265 10.7852V9.44727L8.48203 5.53125L0.972265 1.625V0.287109L10.0055 4.98438V6.08789ZM24.0766 6.08789L15.0434 10.7852V9.44727L22.5531 5.53125L15.0434 1.625V0.287109L24.0766 4.98438V6.08789Z" fill="#292929"></path>
  </symbol>
  <symbol fill="none" xmlns="http://www.w3.org/2000/svg" viewBox="0 0 10 11" id="arrow-right-next">
    <path d="M9.04102 6.08789L0.0078125 10.7852V9.44727L7.51758 5.53125L0.0078125 1.625V0.287109L9.04102 4.98438V6.08789Z" fill="#292929"></path>
  </symbol>
  <symbol fill="none" xmlns="http://www.w3.org/2000/svg" viewBox="0 0 14 6" id="icon-arrow-left">
    <path d="M14 2V4H3V6L0 3L3 0V2H14Z" fill="#292929"></path>
  </symbol>
</svg>